<?xml version="1.0" encoding="utf-8"?>
<!-- Generator: Adobe Illustrator 16.0.0, SVG Export Plug-In . SVG Version: 6.00 Build 0)  -->
<!DOCTYPE svg PUBLIC "-//W3C//DTD SVG 1.1//EN" "http://www.w3.org/Graphics/SVG/1.1/DTD/svg11.dtd">
<svg version="1.1" xmlns="http://www.w3.org/2000/svg" xmlns:xlink="http://www.w3.org/1999/xlink" x="0px" y="0px" width="1024px"
	 height="1095px" viewBox="0 0 1024 1095" style="enable-background:new 0 0 1024 1095;" xml:space="preserve">
<style type="text/css">
<![CDATA[
	.st0{fill:#E0ECDE;}
	.st1{opacity:0.3;fill:#FFFFFF;}
	.st2{fill:#1D1F25;}
	.st3{enable-background:new    ;}
	.st4{fill:url(#SVGID_1_);}
	.st5{fill:url(#SVGID_2_);}
	.st6{fill:url(#SVGID_3_);}
	.st7{fill:url(#SVGID_4_);}
	.st8{fill:url(#SVGID_5_);}
	.st9{fill:url(#SVGID_6_);}
	.st10{fill:url(#SVGID_7_);}
	.st11{fill:url(#SVGID_8_);}
	.st12{fill:url(#SVGID_9_);}
	.st13{opacity:0.3;}
	.st14{opacity:0.4;}
	.st15{opacity:0.5;}
	.st16{opacity:0.6;}
	.st17{fill:#FFFFFF;}
	.st18{fill:url(#SVGID_10_);}
	.st19{fill:url(#SVGID_11_);}
	.st20{fill:url(#SVGID_12_);}
	.st21{fill:url(#SVGID_13_);}
	.st22{fill:url(#SVGID_14_);}
	.st23{fill:url(#SVGID_15_);}
	.st24{fill:url(#SVGID_16_);}
	.st25{fill:url(#SVGID_17_);}
	.st26{fill:url(#SVGID_18_);}
	.st27{fill:url(#SVGID_19_);}
	.st28{fill:url(#SVGID_20_);}
	.st29{fill:url(#SVGID_21_);}
	.st30{fill:url(#SVGID_22_);}
	.st31{fill:url(#SVGID_23_);}
	.st32{fill:url(#SVGID_24_);}
	.st33{fill:url(#SVGID_25_);}
	.st34{fill:url(#SVGID_26_);}
	.st35{fill:url(#SVGID_27_);}
]]>
</style>
<g id="Layer_1">
	<rect class="st17" width="1024" height="1024"/>
	<rect y="1023.58" class="st2" width="1024" height="71.42"/>
	<g>
		<g>
			<g>
				<path class="st0" d="M278.12,1046.44h5.2c4.09,0,7.46,1.08,10.11,3.2c2.67,2.14,4,5.19,4,9.15c0,4.08-1.32,7.2-3.96,9.36
					c-2.65,2.17-6.06,3.24-10.24,3.24h-5.1V1046.44z M281.25,1068.56h1.1c1.62,0,3.16-0.16,4.6-0.48c1.45-0.33,2.71-0.86,3.79-1.62
					c1.07-0.78,1.94-1.77,2.58-2.99c0.64-1.22,0.97-2.74,0.97-4.55c0-1.79-0.32-3.32-0.95-4.59c-0.63-1.28-1.51-2.26-2.66-2.97
					c-1.13-0.72-2.38-1.25-3.75-1.58c-1.37-0.35-2.9-0.5-4.59-0.5h-1.1V1068.56z"/>
				<path class="st0" d="M302.03,1064.16c0.04,1.38,0.49,2.59,1.33,3.61c0.87,1.02,1.99,1.51,3.36,1.51c1.09,0,1.98-0.25,2.69-0.75
					c0.7-0.51,1.36-1.25,1.98-2.26l2.54,1.43c-0.73,1.32-1.75,2.35-3.03,3.12c-1.28,0.74-2.68,1.11-4.21,1.11
					c-2.34,0-4.2-0.76-5.6-2.31c-1.38-1.59-2.07-3.51-2.07-5.83c0-2.43,0.66-4.45,1.98-6.01c1.29-1.56,3.17-2.31,5.64-2.31
					c2.41,0,4.21,0.75,5.44,2.31c1.24,1.54,1.87,3.52,1.87,5.93v0.46H302.03z M310.93,1061.91c-0.19-1.2-0.63-2.15-1.39-2.83
					c-0.75-0.7-1.72-1.05-2.92-1.05c-0.57,0-1.12,0.08-1.62,0.27c-0.5,0.2-0.94,0.48-1.33,0.82c-0.38,0.36-0.71,0.77-0.98,1.25
					c-0.25,0.49-0.42,0.99-0.5,1.55H310.93z"/>
				<path class="st0" d="M322.77,1059.46c-0.45-0.92-1.11-1.37-2-1.37c-0.42,0-0.8,0.15-1.13,0.45c-0.34,0.3-0.5,0.67-0.5,1.08
					c0,0.4,0.13,0.75,0.38,1.02c0.25,0.28,0.6,0.53,1.05,0.78c0.29,0.13,0.51,0.25,0.67,0.3c0.15,0.09,0.4,0.21,0.77,0.37
					c0.17,0.07,0.33,0.16,0.46,0.2c0.13,0.04,0.23,0.08,0.3,0.13c1.1,0.51,1.99,1.09,2.64,1.76c0.64,0.65,0.97,1.55,0.97,2.64
					c0,1.46-0.54,2.69-1.6,3.67c-1.04,0.98-2.31,1.46-3.77,1.46c-0.61,0-1.19-0.08-1.74-0.25c-0.55-0.15-1.07-0.39-1.56-0.69
					c-0.48-0.3-0.89-0.66-1.26-1.09c-0.37-0.44-0.65-0.92-0.85-1.43l2.57-1.15c0.73,1.32,1.68,1.97,2.84,1.97
					c0.47,0,0.9-0.12,1.29-0.38c0.41-0.25,0.71-0.57,0.89-0.95c0.19-0.4,0.23-0.81,0.12-1.28c-0.11-0.43-0.45-0.87-1.03-1.27
					l-2.95-1.55c-0.5-0.26-0.95-0.53-1.33-0.8c-0.38-0.27-0.69-0.55-0.93-0.84c-0.25-0.3-0.43-0.63-0.56-0.98
					c-0.12-0.38-0.18-0.79-0.18-1.28c0-1.26,0.44-2.32,1.34-3.19c0.89-0.88,1.97-1.31,3.26-1.31c1.96,0,3.38,0.88,4.27,2.71
					L322.77,1059.46z"/>
				<path class="st0" d="M333.54,1048.83c0,0.55-0.2,1.03-0.6,1.42c-0.4,0.4-0.89,0.6-1.46,0.6c-0.58,0-1.07-0.19-1.47-0.6
					c-0.4-0.39-0.6-0.87-0.6-1.42c0-0.58,0.2-1.07,0.6-1.48c0.4-0.41,0.89-0.6,1.47-0.6c0.57,0,1.06,0.19,1.46,0.6
					C333.34,1047.76,333.54,1048.24,333.54,1048.83z M332.98,1071.4h-3.01v-15.49h3.01V1071.4z"/>
				<path class="st0" d="M352.39,1071.12c0,2.9-0.55,5.17-1.67,6.79c-1.12,1.58-3.1,2.37-5.94,2.37c-2.2,0-4-0.63-5.4-1.88
					c-1.38-1.25-2.09-2.96-2.13-5.13h2.99c0,1.39,0.44,2.46,1.28,3.24c0.87,0.75,2,1.13,3.4,1.13c1.71,0,2.88-0.49,3.52-1.5
					c0.63-1,0.94-2.38,0.94-4.2v-2.95h-0.07c-0.62,0.95-1.39,1.67-2.31,2.18c-0.92,0.52-1.92,0.77-2.98,0.77
					c-2.32,0-4.15-0.8-5.48-2.41c-1.33-1.62-1.98-3.59-1.98-5.96c0-2.24,0.67-4.12,2.02-5.69c1.36-1.62,3.13-2.41,5.31-2.41
					c2.28,0,4.11,1.04,5.42,3.08h0.07v-2.63h3V1071.12z M344.49,1069.28c1.57,0,2.8-0.54,3.69-1.61c0.91-1.11,1.37-2.45,1.37-4.01
					c0-1.55-0.46-2.86-1.37-3.95c-0.88-1.07-2.12-1.62-3.69-1.62c-1.5,0-2.7,0.55-3.61,1.67c-0.89,1.08-1.34,2.38-1.34,3.9
					c0,1.56,0.45,2.88,1.34,3.97C341.8,1068.74,343,1069.28,344.49,1069.28z"/>
				<path class="st0" d="M359.29,1057.99h0.07c0.43-0.83,1.09-1.44,1.93-1.88c0.85-0.45,1.77-0.65,2.77-0.65
					c1.02,0,1.88,0.14,2.6,0.45c0.7,0.3,1.28,0.74,1.71,1.32c0.44,0.58,0.75,1.27,0.94,2.1c0.19,0.82,0.28,1.78,0.28,2.82v9.24h-3
					v-8.87c0-1.53-0.23-2.64-0.66-3.34c-0.45-0.73-1.37-1.1-2.77-1.1c-0.52,0-0.95,0.05-1.3,0.15c-0.36,0.09-0.67,0.23-0.94,0.42
					c-0.27,0.19-0.49,0.41-0.67,0.65c-0.17,0.25-0.35,0.51-0.5,0.81c-0.07,0.14-0.13,0.35-0.19,0.59c-0.05,0.24-0.1,0.49-0.14,0.73
					c-0.05,0.26-0.09,0.51-0.1,0.77c-0.02,0.26-0.03,0.46-0.03,0.61v1.45v7.12h-3v-15.49h3V1057.99z"/>
				<path class="st0" d="M383.14,1042.67h3v15.82h0.07c1.38-2.03,3.19-3.03,5.44-3.03c2.17,0,3.95,0.8,5.31,2.41
					c1.35,1.56,2.03,3.45,2.03,5.69c0,2.37-0.67,4.34-2,5.96c-1.34,1.61-3.17,2.41-5.47,2.41c-1.06,0-2.06-0.25-2.99-0.77
					c-0.92-0.51-1.69-1.23-2.31-2.18h-0.07v2.42h-3V1042.67z M390.91,1069.28c1.58,0,2.81-0.54,3.7-1.61
					c0.91-1.11,1.36-2.45,1.36-4.01c0-1.55-0.45-2.86-1.36-3.95c-0.89-1.07-2.12-1.62-3.7-1.62c-1.49,0-2.7,0.55-3.61,1.67
					c-0.89,1.08-1.34,2.38-1.34,3.9c0,1.56,0.45,2.88,1.34,3.97C388.21,1068.74,389.42,1069.28,390.91,1069.28z"/>
				<path class="st0" d="M399.41,1055.91h3.5l5.27,9.83l4.91-9.83h3.37l-12.65,24.37h-3.4l6.15-11.53L399.41,1055.91z"/>
				<path class="st0" d="M431.59,1065.13l-2.87,6.26h-3.37l12-26.01l12.01,26.01h-3.37l-2.88-6.26H431.59z M437.36,1052.2
					l-4.47,10.11h8.94L437.36,1052.2z"/>
				<path class="st0" d="M454.26,1071.4h-3v-28.73h3V1071.4z"/>
				<path class="st0" d="M461.66,1071.4h-2.99v-28.73h2.99V1071.4z"/>
				<path class="st0" d="M473.07,1059.56v2.47h-7.29v-2.47H473.07z"/>
				<path class="st0" d="M484.75,1045.68c-0.94-0.43-1.61-0.62-2-0.62c-0.64,0-1.12,0.18-1.4,0.6c-0.29,0.4-0.48,0.9-0.6,1.5
					c-0.06,0.45-0.1,0.79-0.12,1.05c-0.01,0.24-0.02,0.6-0.02,1.03v6.66h4.14v2.78h-4.14v12.71h-2.99v-12.71h-1.37v-2.78h1.37v-7.55
					c0-4.06,1.67-6.09,5.03-6.09c0.74,0,1.43,0.13,2.11,0.4V1045.68z"/>
				<path class="st0" d="M489.39,1058.43h0.09c0.39-0.93,0.94-1.66,1.68-2.18c0.74-0.55,1.6-0.79,2.59-0.79
					c0.83,0,1.65,0.24,2.47,0.75l-1.37,2.72c-0.48-0.42-1.1-0.63-1.83-0.63c-1.53,0-2.56,0.62-3.07,1.84
					c-0.22,0.58-0.38,1.17-0.46,1.72c-0.07,0.55-0.11,1.2-0.11,1.92v7.62h-3v-15.49h3V1058.43z"/>
				<path class="st0" d="M499.69,1064.16c0.05,1.38,0.48,2.59,1.33,3.61c0.88,1.02,1.99,1.51,3.37,1.51c1.09,0,1.99-0.25,2.69-0.75
					c0.7-0.51,1.36-1.25,1.98-2.26l2.53,1.43c-0.73,1.32-1.73,2.35-3.02,3.12c-1.27,0.74-2.68,1.11-4.22,1.11
					c-2.32,0-4.2-0.76-5.6-2.31c-1.37-1.59-2.07-3.51-2.07-5.83c0-2.43,0.65-4.45,1.98-6.01c1.28-1.56,3.16-2.31,5.62-2.31
					c2.42,0,4.23,0.75,5.45,2.31c1.25,1.54,1.86,3.52,1.86,5.93v0.46H499.69z M508.59,1061.91c-0.18-1.2-0.64-2.15-1.39-2.83
					c-0.74-0.7-1.72-1.05-2.92-1.05c-0.57,0-1.12,0.08-1.61,0.27c-0.5,0.2-0.95,0.48-1.34,0.82c-0.39,0.36-0.71,0.77-0.97,1.25
					c-0.24,0.49-0.43,0.99-0.52,1.55H508.59z"/>
				<path class="st0" d="M515.96,1064.16c0.05,1.38,0.5,2.59,1.34,3.61c0.86,1.02,1.98,1.51,3.36,1.51c1.1,0,1.99-0.25,2.69-0.75
					c0.7-0.51,1.37-1.25,1.98-2.26l2.53,1.43c-0.73,1.32-1.73,2.35-3,3.12c-1.28,0.74-2.69,1.11-4.23,1.11
					c-2.33,0-4.2-0.76-5.6-2.31c-1.38-1.59-2.07-3.51-2.07-5.83c0-2.43,0.65-4.45,1.97-6.01c1.29-1.56,3.16-2.31,5.65-2.31
					c2.39,0,4.21,0.75,5.42,2.31c1.25,1.54,1.86,3.52,1.86,5.93v0.46H515.96z M524.88,1061.91c-0.18-1.2-0.65-2.15-1.39-2.83
					c-0.75-0.7-1.73-1.05-2.91-1.05c-0.59,0-1.13,0.08-1.63,0.27c-0.5,0.2-0.95,0.48-1.33,0.82c-0.39,0.36-0.73,0.77-0.97,1.25
					c-0.26,0.49-0.43,0.99-0.52,1.55H524.88z"/>
				<path class="st0" d="M537.57,1059.56v2.47h-7.29v-2.47H537.57z"/>
				<path class="st0" d="M553.15,1068.98h-0.05c-0.63,0.95-1.4,1.67-2.33,2.18c-0.92,0.52-1.92,0.77-2.98,0.77
					c-2.33,0-4.14-0.8-5.47-2.41c-1.34-1.62-2-3.59-2-5.96c0-2.24,0.67-4.12,2.03-5.69c1.36-1.62,3.12-2.41,5.31-2.41
					c2.24,0,4.05,1,5.44,3.03h0.05v-15.82h3v28.73h-3V1068.98z M548.24,1069.28c1.59,0,2.83-0.54,3.71-1.61
					c0.9-1.11,1.37-2.45,1.37-4.01c0-1.55-0.46-2.86-1.37-3.95c-0.88-1.07-2.12-1.62-3.71-1.62c-1.48,0-2.68,0.55-3.59,1.67
					c-0.89,1.08-1.34,2.38-1.34,3.9c0,1.56,0.45,2.88,1.34,3.97C545.56,1068.74,546.76,1069.28,548.24,1069.28z"/>
				<path class="st0" d="M561.05,1057.83c1.62-1.58,3.61-2.37,5.94-2.37c2.33,0,4.31,0.79,5.9,2.37c1.63,1.59,2.44,3.55,2.44,5.87
					s-0.81,4.27-2.44,5.86c-1.58,1.59-3.57,2.37-5.9,2.37c-2.34,0-4.32-0.78-5.94-2.37c-1.59-1.59-2.39-3.54-2.39-5.86
					S559.46,1059.42,561.05,1057.83z M561.65,1063.7c0,1.43,0.53,2.7,1.58,3.81c1.02,1.06,2.28,1.58,3.77,1.58
					c1.45,0,2.72-0.53,3.76-1.58c1.05-1.1,1.58-2.37,1.58-3.81c0-1.46-0.52-2.73-1.58-3.81c-1.04-1.07-2.31-1.59-3.76-1.59
					c-1.49,0-2.75,0.52-3.77,1.59C562.18,1060.97,561.65,1062.24,561.65,1063.7z"/>
				<path class="st0" d="M583.4,1065.78l4.6-10.73l4.57,10.73l4.53-9.86h3.41l-7.94,16.02l-4.57-10.35l-4.6,10.35l-7.93-16.02h3.4
					L583.4,1065.78z"/>
				<path class="st0" d="M605.01,1057.99h0.06c0.44-0.83,1.1-1.44,1.95-1.88c0.83-0.45,1.77-0.65,2.76-0.65
					c1.03,0,1.89,0.14,2.6,0.45c0.71,0.3,1.29,0.74,1.71,1.32c0.46,0.58,0.76,1.27,0.95,2.1c0.19,0.82,0.27,1.78,0.27,2.82v9.24h-3
					v-8.87c0-1.53-0.21-2.64-0.66-3.34c-0.46-0.73-1.37-1.1-2.78-1.1c-0.51,0-0.94,0.05-1.31,0.15c-0.34,0.09-0.66,0.23-0.92,0.42
					c-0.27,0.19-0.5,0.41-0.67,0.65c-0.18,0.25-0.33,0.51-0.5,0.81c-0.05,0.14-0.12,0.35-0.17,0.59c-0.06,0.24-0.1,0.49-0.16,0.73
					c-0.03,0.26-0.07,0.51-0.1,0.77c-0.01,0.26-0.03,0.46-0.03,0.61v1.45v7.12h-3v-15.49h3V1057.99z"/>
				<path class="st0" d="M622.58,1071.4h-3v-28.73h3V1071.4z"/>
				<path class="st0" d="M627.85,1057.83c1.63-1.58,3.61-2.37,5.94-2.37c2.32,0,4.3,0.79,5.9,2.37c1.62,1.59,2.43,3.55,2.43,5.87
					s-0.81,4.27-2.43,5.86c-1.6,1.59-3.58,2.37-5.9,2.37c-2.33,0-4.31-0.78-5.94-2.37c-1.61-1.59-2.4-3.54-2.4-5.86
					S626.25,1059.42,627.85,1057.83z M628.46,1063.7c0,1.43,0.52,2.7,1.57,3.81c1.02,1.06,2.28,1.58,3.77,1.58
					c1.47,0,2.72-0.53,3.76-1.58c1.06-1.1,1.58-2.37,1.58-3.81c0-1.46-0.53-2.73-1.58-3.81c-1.04-1.07-2.28-1.59-3.76-1.59
					c-1.49,0-2.75,0.52-3.77,1.59C628.98,1060.97,628.46,1062.24,628.46,1063.7z"/>
				<path class="st0" d="M659.5,1071.4h-3v-2.42h-0.07c-1.33,1.98-3.1,2.95-5.3,2.95c-2.29,0-4.11-0.8-5.48-2.41
					c-1.33-1.62-1.98-3.59-1.98-5.96c0-2.24,0.68-4.12,2.02-5.69c1.36-1.62,3.14-2.41,5.33-2.41c2.23,0,4.04,1,5.41,3.03h0.07v-2.57
					h3V1071.4z M651.6,1069.28c1.57,0,2.81-0.54,3.71-1.61c0.9-1.11,1.35-2.45,1.35-4.01c0-1.55-0.45-2.86-1.35-3.95
					c-0.9-1.07-2.14-1.62-3.71-1.62c-1.49,0-2.7,0.55-3.6,1.67c-0.89,1.08-1.33,2.38-1.33,3.9c0,1.56,0.44,2.88,1.33,3.97
					C648.9,1068.74,650.11,1069.28,651.6,1069.28z"/>
				<path class="st0" d="M675.05,1068.98h-0.07c-0.62,0.95-1.4,1.67-2.32,2.18c-0.91,0.52-1.91,0.77-2.98,0.77
					c-2.32,0-4.13-0.8-5.47-2.41c-1.34-1.62-1.99-3.59-1.99-5.96c0-2.24,0.67-4.12,2.04-5.69c1.35-1.62,3.11-2.41,5.29-2.41
					c2.25,0,4.06,1,5.44,3.03h0.07v-15.82h3v28.73h-3V1068.98z M670.15,1069.28c1.58,0,2.81-0.54,3.7-1.61
					c0.92-1.11,1.36-2.45,1.36-4.01c0-1.55-0.45-2.86-1.36-3.95c-0.89-1.07-2.12-1.62-3.7-1.62c-1.5,0-2.69,0.55-3.61,1.67
					c-0.88,1.08-1.32,2.38-1.32,3.9c0,1.56,0.44,2.88,1.32,3.97C667.46,1068.74,668.65,1069.28,670.15,1069.28z"/>
				<path class="st0" d="M686.65,1070.02c0,0.53-0.18,0.99-0.56,1.36c-0.38,0.37-0.84,0.55-1.38,0.55c-0.52,0-1-0.19-1.37-0.55
					c-0.37-0.37-0.57-0.83-0.57-1.36c0-0.51,0.2-0.96,0.57-1.35c0.37-0.37,0.85-0.56,1.37-0.56c0.53,0,1,0.19,1.38,0.56
					C686.47,1069.05,686.65,1069.51,686.65,1070.02z"/>
				<path class="st0" d="M703.05,1060.32c-1.24-1.39-2.74-2.1-4.47-2.1c-1.45,0-2.67,0.56-3.69,1.64c-1,1.09-1.5,2.38-1.5,3.8
					c0,1.62,0.5,2.91,1.5,3.93c1.04,1.04,2.33,1.57,3.88,1.57c1.61,0,3.04-0.7,4.28-2.07v3.81c-1.29,0.69-2.72,1.02-4.29,1.02
					c-2.31,0-4.29-0.77-5.94-2.35c-1.63-1.55-2.43-3.47-2.43-5.79c0-2.38,0.81-4.36,2.43-5.96c1.62-1.58,3.65-2.37,6.1-2.37
					c1.61,0,2.99,0.33,4.14,1.02V1060.32z"/>
				<path class="st0" d="M707.3,1057.83c1.62-1.58,3.6-2.37,5.94-2.37c2.34,0,4.31,0.79,5.91,2.37c1.61,1.59,2.42,3.55,2.42,5.87
					s-0.8,4.27-2.42,5.86c-1.6,1.59-3.57,2.37-5.91,2.37c-2.33,0-4.31-0.78-5.94-2.37c-1.6-1.59-2.41-3.54-2.41-5.86
					S705.7,1059.42,707.3,1057.83z M707.9,1063.7c0,1.43,0.5,2.7,1.56,3.81c1.02,1.06,2.28,1.58,3.77,1.58
					c1.46,0,2.73-0.53,3.77-1.58c1.04-1.1,1.56-2.37,1.56-3.81c0-1.46-0.53-2.73-1.56-3.81c-1.04-1.07-2.31-1.59-3.77-1.59
					c-1.5,0-2.75,0.52-3.77,1.59C708.4,1060.97,707.9,1062.24,707.9,1063.7z"/>
				<path class="st0" d="M727.2,1057.87h0.08c0.43-0.72,1.02-1.29,1.78-1.76c0.74-0.43,1.53-0.65,2.35-0.65
					c1.95,0,3.45,0.9,4.5,2.73c0.48-0.83,1.17-1.5,2.02-2c0.84-0.5,1.79-0.73,2.78-0.73c3.46,0,5.17,2.22,5.17,6.68v9.26h-3v-8.77
					c0-0.39-0.02-0.8-0.05-1.18c-0.04-0.38-0.09-0.75-0.19-1.13c-0.09-0.35-0.22-0.68-0.41-1c-0.17-0.3-0.42-0.58-0.72-0.83
					c-0.4-0.26-0.91-0.39-1.53-0.39c-0.63,0-1.16,0.13-1.59,0.39c-0.43,0.25-0.76,0.57-0.99,0.92c-0.25,0.35-0.43,0.84-0.56,1.37
					c-0.12,0.54-0.21,1.05-0.25,1.5c-0.02,0.43-0.05,0.95-0.05,1.51v7.62h-3.01v-8.2c0-0.53,0-0.96-0.03-1.31
					c-0.02-0.37-0.09-0.8-0.2-1.35c-0.11-0.57-0.25-0.98-0.43-1.25c-0.18-0.3-0.45-0.58-0.83-0.83c-0.38-0.24-0.84-0.36-1.37-0.36
					c-1.54,0-2.52,0.67-2.96,1.99c-0.21,0.61-0.34,1.21-0.41,1.74c-0.06,0.56-0.09,1.21-0.09,1.96v7.62h-3v-15.49h3V1057.87z"/>
			</g>
			<g>
				<g>
					<path class="st0" d="M208.16,1062.27c14.16,0,28.32,0,42.48,0c1.29,0,1.29-1.99,0-1.99c-14.16,0-28.32,0-42.48,0
						C206.88,1060.29,206.88,1062.27,208.16,1062.27L208.16,1062.27z"/>
				</g>
				<g>
					<path class="st0" d="M773.36,1062.27c14.15,0,28.31,0,42.47,0c1.3,0,1.3-1.99,0-1.99c-14.15,0-28.32,0-42.47,0
						C772.08,1060.29,772.08,1062.27,773.36,1062.27L773.36,1062.27z"/>
				</g>
			</g>
		</g>
	</g>
</g>
<g id="Layer_6">
</g>
<g id="Layer_5">
	<g class="st16">
		<g class="st3">
		</g>
	</g>
	<g>
		<linearGradient id="SVGID_1_" gradientUnits="userSpaceOnUse" x1="74.3115" y1="702.4043" x2="103.3628" y2="702.4043">
			<stop  offset="0" style="stop-color:#DFF7FF"/>
			<stop  offset="0.5161" style="stop-color:#00BBFF"/>
			<stop  offset="0.6937" style="stop-color:#00A7F2"/>
			<stop  offset="1" style="stop-color:#0088DF"/>
		</linearGradient>
		<path class="st4" d="M103.23,689.32c-10.63,1.73-25.46,10.4-28.49,17.99c-1.64,4.11,1.6,9.99,6.45,7.66
			c3.96-1.95,14.25-19.96,22.17-25.64"/>
	</g>
</g>
<g id="Layer_3">
	<g>
		<linearGradient id="SVGID_2_" gradientUnits="userSpaceOnUse" x1="0" y1="609.5654" x2="547.2529" y2="609.5654">
			<stop  offset="0" style="stop-color:#4CCFFF"/>
			<stop  offset="0.135" style="stop-color:#39B8EF"/>
			<stop  offset="0.3143" style="stop-color:#25A1DE"/>
			<stop  offset="0.5072" style="stop-color:#1791D2"/>
			<stop  offset="0.7216" style="stop-color:#0F87CB"/>
			<stop  offset="1" style="stop-color:#0C84C9"/>
		</linearGradient>
		<path class="st5" d="M487.79,662.3c-6.35-22.67,7.25-29.01,26.29-37.17c9.07-3.63,25.39-6.35,30.83-16.32
			c6.35-12.69-0.91-18.13-13.6-16.32c-22.67,4.53-29.01,33.55-52.59,35.36c-9.97,0.91-22.67-2.72-23.57-14.51
			c-0.91-9.97,7.38-18.34,12.69-27.2c13.6-22.67,5.44-67.09-18.13-68c-32.83-1.26-19.04,40.8-12.69,52.59
			c38.99,66.19-115.15,45.33-204-14.51C200.85,534.55,77.88,487.89,0,556.62c27.13,1.92,58.21-5.44,85.31,3.89
			c34.41,11.86,65.89,26.62,95.32,48.07c13.39,9.76,25.26,21.28,37.18,32.82c15.73,15.23,32.63,22.11,52.34,31.08
			c26.26,11.94,55.77,19.29,84.3,23.42c34.03,4.93,76.38,9.97,108.86-3.67"/>
	</g>
	<g>
		<linearGradient id="SVGID_3_" gradientUnits="userSpaceOnUse" x1="613.8965" y1="527.1826" x2="850.5771" y2="527.1826">
			<stop  offset="0" style="stop-color:#FFFFFF"/>
			<stop  offset="0.1159" style="stop-color:#C7F0FF"/>
			<stop  offset="0.3098" style="stop-color:#6FD8FF"/>
			<stop  offset="0.3978" style="stop-color:#4CCFFF"/>
			<stop  offset="0.5217" style="stop-color:#3EBFF3"/>
			<stop  offset="1" style="stop-color:#0C84C9"/>
		</linearGradient>
		<path class="st6" d="M613.9,605.71c26.29,6.35,110.16-19.04,163.13-127.47c8.57-17.55,19.72-69.64,42.61-68
			c25.39,1.81,9.97,44.43-8.16,68.91c-8.45,11.4-33.55,49.87-38.99,60.75c-16.32,32.64,37.27,14.06,50.77,10.88
			c30.83-7.25,36.27,19.04,12.69,22.67c-25.49,3.92-54.4-4.53-80.69,0.91c-34.45,7.25-64.38,31.73-73.44,69.81"/>
	</g>
	<g>
		<linearGradient id="SVGID_4_" gradientUnits="userSpaceOnUse" x1="688.9873" y1="214.9165" x2="350.3615" y2="924.8092">
			<stop  offset="0" style="stop-color:#DFF7FF"/>
			<stop  offset="0.3495" style="stop-color:#BFEEFF"/>
			<stop  offset="0.4133" style="stop-color:#96E3FF"/>
			<stop  offset="0.5206" style="stop-color:#56D2FF"/>
			<stop  offset="0.6112" style="stop-color:#27C6FF"/>
			<stop  offset="0.6806" style="stop-color:#0BBEFF"/>
			<stop  offset="0.7204" style="stop-color:#00BBFF"/>
			<stop  offset="0.823" style="stop-color:#00A7F2"/>
			<stop  offset="1" style="stop-color:#0088DF"/>
		</linearGradient>
		<path class="st7" d="M0,557.12c135.1-56.21,206.72,21.76,234.83,17.23c29.01-4.53,58.93-24.48,51.68-57.12
			c-5.44-19.04-19.04-44.43,4.53-58.03c32.64-19.04,59.84,15.41,55.31,47.15c-1.81,16.32-14.51,32.64-25.39,44.43
			c-8.16,9.07-25.39,16.32-31.73,27.2c-11.79,24.48,32.64,45.33,48.96,52.59c108.8,45.33,234.83,17.23,282.88-99.73
			c18.13-44.43,28.11-102.46,19.04-150.51c-9.97-57.12-48.05-99.73-50.77-158.67c-1.81-34.45,29.92-47.15,58.03-30.83
			c25.39,15.41,32.64,48.05,35.36,75.25c6.35,57.12-4.53,106.99-19.04,161.39c-6.35,23.57-21.76,56.21-17.23,80.69
			c4.53,25.39,30.83,31.73,48.96,14.51c15.41-14.51,16.32-59.84,37.17-61.65c13.6-0.91,18.13,9.07,19.04,19.95
			c1.81,20.85-10.88,31.73-24.48,44.43c-19.04,17.23-64.37,56.21-32.64,79.79c28.11,20.85,60.75,0,87.04-10.88
			c26.29-10.88,57.12-10.88,80.69,6.35c23.57,17.23,19.04,51.68-14.51,44.43c-15.41-3.63-28.11-12.69-44.43-14.51
			c-13.6-0.91-27.2-1.81-40.8,0c-17.23,1.81-61.65,16.32-33.55,36.27c19.95,14.51,94.29,16.32,150.51,90.67
			c17.08,22.59,36.27,52.59,33.55,82.51c-2.72,29.01-31.73,57.12-61.65,46.24c-29.01-9.97-41.71-46.24-53.49-71.63
			c-11.79-26.29-50.99-109.48-122.4-106.08c-76.16,3.63-176.82,256.79-349.07,59.84C308.4,747.79,158.67,550.99,0,607.21"/>
	</g>
	<g class="st14">
		<g>
			<linearGradient id="SVGID_5_" gradientUnits="userSpaceOnUse" x1="502.3291" y1="506.146" x2="405.0584" y2="710.0635">
				<stop  offset="0" style="stop-color:#00BBFF"/>
				<stop  offset="0.1766" style="stop-color:#00A1E5"/>
				<stop  offset="0.7408" style="stop-color:#005296"/>
				<stop  offset="1" style="stop-color:#003377"/>
			</linearGradient>
			<path class="st8" d="M476.01,670.46c0,0,98.6-5.76,132.93-114.74c-54.79,95.87-170.13,116.77-270.74,74.84
				c-5.38-2.39-13.81-6.26-22.27-11.24C335.59,644.75,380.34,679.26,476.01,670.46z"/>
		</g>
		<g>
			<linearGradient id="SVGID_6_" gradientUnits="userSpaceOnUse" x1="517.8477" y1="593.1699" x2="386.2149" y2="869.1238">
				<stop  offset="0" style="stop-color:#00BBFF"/>
				<stop  offset="0.1766" style="stop-color:#00A1E5"/>
				<stop  offset="0.7408" style="stop-color:#005296"/>
				<stop  offset="1" style="stop-color:#003377"/>
			</linearGradient>
			<path class="st9" d="M803.55,787.4c-17.26-40.09-45.65-86.03-88.86-101.53c-25.64-9.2-53.75-4.48-78.2,9.07
				c-25.86,14.33-48.11,37.27-67.8,58.27c-156.15,166.58-244.1-59.18-357.43-121.74C136.09,589.98,69.93,568.89,0,596.08v11.42
				c158.67-56.21,308.4,140.3,326.4,160.88c172.25,196.95,272.91-56.21,349.07-59.84c71.41-3.4,110.62,79.79,122.4,106.08
				c11.79,25.39,24.48,61.65,53.49,71.63c29.92,10.88,58.93-17.23,61.65-46.24c1.08-11.91-1.31-23.82-5.65-35.28
				C876.91,862.87,831.03,851.21,803.55,787.4z"/>
		</g>
	</g>
	<g class="st15">
		<linearGradient id="SVGID_7_" gradientUnits="userSpaceOnUse" x1="574.1357" y1="631.3945" x2="355.4791" y2="757.6359">
			<stop  offset="0" style="stop-color:#DFF7FF"/>
			<stop  offset="0.3629" style="stop-color:#9FE6FF"/>
			<stop  offset="0.7975" style="stop-color:#57D3FF"/>
			<stop  offset="1" style="stop-color:#3BCBFF"/>
		</linearGradient>
		<path class="st10" d="M328.22,656.86c34.45,49.87,97.92,58.93,151.42,39.89c24.48-9.07,43.52-22.67,64.37-38.08
			c8.16-5.44,18.13-14.51,28.11-14.51c10.88,0,19.95,10.88,13.6,21.76c-7.25,13.6-66.19,28.11-46.24,48.96
			c8.16,8.16,34,9.75,25.84,23.8c-6.95,11.97-37.63,7.03-49.41,7.93c-9.97,0.91-26.29,0.91-27.2,13.6
			c-0.91,13.6,25.16,23.12,5.21,34c-22.67,11.79-62.56,4.99-83.41-4.99c-19.95-9.07-42.39-25.61-57.8-41.03
			c-5.44-5.44-17.23-18.81-10.88-26.97c8.16-9.07,17.23,3.63,24.48,5.44c13.6,3.63,14.51-0.91,5.44-9.97
			c-7.25-7.25-16.32-10.88-23.57-19.04c-7.25-9.07-18.6-26.67-19.95-40.76"/>
	</g>
	<g class="st15">
		<linearGradient id="SVGID_8_" gradientUnits="userSpaceOnUse" x1="859.4707" y1="743.3535" x2="808.9681" y2="772.5112">
			<stop  offset="0" style="stop-color:#DFF7FF"/>
			<stop  offset="0.3629" style="stop-color:#9FE6FF"/>
			<stop  offset="0.7975" style="stop-color:#57D3FF"/>
			<stop  offset="1" style="stop-color:#3BCBFF"/>
		</linearGradient>
		<path class="st11" d="M778.84,720.32c32.64,11.79,29.92,64.37,52.59,86.13c9.97,9.07,29.92,19.95,31.73,0.91
			c0.91-11.79-8.16-27.2-11.79-38.99c9.07-3.63,18.13,12.69,19.95-0.91c0.91-8.16-12.69-19.04-18.13-24.48
			c-10.88-12.69-30.83-35.36-48.96-33.55c-1.81,9.97,9.97,14.51,9.07,25.39c-9.97,1.81-19.95-18.13-35.36-17.23"/>
	</g>
	<g class="st15">
		<linearGradient id="SVGID_9_" gradientUnits="userSpaceOnUse" x1="236.9893" y1="558.9707" x2="71.6021" y2="654.457">
			<stop  offset="0" style="stop-color:#DFF7FF"/>
			<stop  offset="0.3629" style="stop-color:#9FE6FF"/>
			<stop  offset="0.7975" style="stop-color:#57D3FF"/>
			<stop  offset="1" style="stop-color:#3BCBFF"/>
		</linearGradient>
		<path class="st12" d="M27.26,577.52c62.5-4.08,89.07,5.54,120.53,16.78c32.96,11.24,56.97,25.97,86.18,43.2
			c5.99,3,17.18,12.46,24.72,11.23c8.3-1.34,2.25-9.74-3.74-14.23c-7.49-5.24-18.73-11.98-5.99-18.72c5.99-3,25.9,3.71,16.48-6.74
			c-34.45-38.2-104.49-59.14-122.84-48.69c-6.61,3.09,5.99,7.49,8.99,10.49c-8.24,4.49-23.97-5.99-32.96-7.49
			c-11.98-3-48.94-12.38-91.54,14"/>
	</g>
	<g class="st16">
		<linearGradient id="SVGID_10_" gradientUnits="userSpaceOnUse" x1="343.4854" y1="488.3491" x2="294.5006" y2="516.6305">
			<stop  offset="0" style="stop-color:#DFF7FF"/>
			<stop  offset="0.3629" style="stop-color:#9FE6FF"/>
			<stop  offset="0.7975" style="stop-color:#57D3FF"/>
			<stop  offset="1" style="stop-color:#3BCBFF"/>
		</linearGradient>
		<path class="st18" d="M311.6,546.24c11.48-13.3,9.37-25.39,7.55-37.17c-1.81-12.69-19.95-44.43-0.91-44.43
			c38.08,0,15.41,75.25-6.35,81.6"/>
	</g>
	<g>
		<linearGradient id="SVGID_11_" gradientUnits="userSpaceOnUse" x1="459.1606" y1="542.6865" x2="438.7224" y2="554.4866">
			<stop  offset="0" style="stop-color:#DFF7FF"/>
			<stop  offset="0.3629" style="stop-color:#9FE6FF"/>
			<stop  offset="0.7975" style="stop-color:#57D3FF"/>
			<stop  offset="1" style="stop-color:#3BCBFF"/>
		</linearGradient>
		<path class="st19" d="M450.02,574.05c0.6-7.86,12.69-54.4-8.46-47.15c-12.09,4.23,5.44,36.87,8.46,45.33"/>
	</g>
	<g>
		<linearGradient id="SVGID_12_" gradientUnits="userSpaceOnUse" x1="538.0859" y1="594.958" x2="513.77" y2="608.9968">
			<stop  offset="0" style="stop-color:#DFF7FF"/>
			<stop  offset="0.3629" style="stop-color:#9FE6FF"/>
			<stop  offset="0.7975" style="stop-color:#57D3FF"/>
			<stop  offset="1" style="stop-color:#3BCBFF"/>
		</linearGradient>
		<path class="st20" d="M513.48,608.5c2.42-6.04,20.55-22.97,25.39-12.09c4.23,8.46-19.95,9.67-24.78,12.69"/>
	</g>
	<g class="st16">
		<linearGradient id="SVGID_13_" gradientUnits="userSpaceOnUse" x1="675.9277" y1="239.6406" x2="632.3577" y2="264.7958">
			<stop  offset="0" style="stop-color:#DFF7FF"/>
			<stop  offset="0.3629" style="stop-color:#9FE6FF"/>
			<stop  offset="0.7975" style="stop-color:#57D3FF"/>
			<stop  offset="1" style="stop-color:#3BCBFF"/>
		</linearGradient>
		<path class="st21" d="M665.2,321.69c1.21-13.3-9.07-30.22-14.51-41.71c-10.28-19.95-30.22-33.25-38.69-52.59
			c-6.65-15.72-4.23-30.22,13.9-33.85c20.55-4.23,35.66,16.32,41.1,33.85c7.25,25.39,11.48,70.72-1.21,94.9"/>
	</g>
	<g>
		<linearGradient id="SVGID_14_" gradientUnits="userSpaceOnUse" x1="835.5771" y1="434.8989" x2="786.4674" y2="463.2524">
			<stop  offset="0" style="stop-color:#DFF7FF"/>
			<stop  offset="0.3629" style="stop-color:#9FE6FF"/>
			<stop  offset="0.7975" style="stop-color:#57D3FF"/>
			<stop  offset="1" style="stop-color:#3BCBFF"/>
		</linearGradient>
		<path class="st22" d="M798.78,484.59c1.21-9.07,11.49-70.12,21.76-68.91c22.97,3.02-13.9,62.26-20.55,68.3"/>
	</g>
	<g>
		<linearGradient id="SVGID_15_" gradientUnits="userSpaceOnUse" x1="845.0156" y1="557.874" x2="817.0983" y2="573.9921">
			<stop  offset="0" style="stop-color:#DFF7FF"/>
			<stop  offset="0.3629" style="stop-color:#9FE6FF"/>
			<stop  offset="0.7975" style="stop-color:#57D3FF"/>
			<stop  offset="1" style="stop-color:#3BCBFF"/>
		</linearGradient>
		<path class="st23" d="M813.29,567.4c5.44,1.21,35.66,7.25,33.25-6.04c-1.81-12.09-30.22,3.63-32.64,5.44"/>
	</g>
	<g class="st15">
		<linearGradient id="SVGID_16_" gradientUnits="userSpaceOnUse" x1="859.6855" y1="595.2676" x2="797.7518" y2="631.025">
			<stop  offset="0" style="stop-color:#DFF7FF"/>
			<stop  offset="0.3629" style="stop-color:#9FE6FF"/>
			<stop  offset="0.7975" style="stop-color:#57D3FF"/>
			<stop  offset="1" style="stop-color:#3BCBFF"/>
		</linearGradient>
		<path class="st24" d="M781.26,602.45c17.53-12.09,63.47-14.51,81,0c10.88,9.07,15.72,35.06-5.44,24.18
			c-14.51-7.86-22.36-20.55-39.89-23.57c-11.48-1.81-23.57,0.6-35.06-1.21"/>
	</g>
	<g class="st15">
		<linearGradient id="SVGID_17_" gradientUnits="userSpaceOnUse" x1="751.375" y1="480.7734" x2="712.0728" y2="503.4646">
			<stop  offset="0" style="stop-color:#DFF7FF"/>
			<stop  offset="0.3629" style="stop-color:#9FE6FF"/>
			<stop  offset="0.7975" style="stop-color:#57D3FF"/>
			<stop  offset="1" style="stop-color:#3BCBFF"/>
		</linearGradient>
		<path class="st25" d="M721.41,519.64c4.84-7.25,9.07-16.93,9.67-25.39c0.6-6.65-4.83-28.41,7.86-27.2s10.88,23.57,6.04,30.83
			c-5.44,8.46-9.67,16.32-22.36,21.76"/>
	</g>
	<g class="st15">
		<linearGradient id="SVGID_18_" gradientUnits="userSpaceOnUse" x1="696.126" y1="583.8359" x2="563.2312" y2="660.5627">
			<stop  offset="0" style="stop-color:#DFF7FF"/>
			<stop  offset="0.3629" style="stop-color:#9FE6FF"/>
			<stop  offset="0.7975" style="stop-color:#57D3FF"/>
			<stop  offset="1" style="stop-color:#3BCBFF"/>
		</linearGradient>
		<path class="st26" d="M598.86,597.24c3.63-8.46,36.72-94.52,49.41-69.74c3.63,7.25-1.21,17.53,3.63,23.57
			c7.25,8.46,12.69-0.61,19.95-0.61c9.67-0.6,7.25,7.25,4.84,15.11c-3.63,9.67-5.44,16.92-4.84,27.8
			c0.61,19.34,11.49,27.2,29.62,27.2c28.41,0-1.81,11.49-1.81,23.57c0,8.46,11.48,9.07,12.69,16.92
			c1.81,11.49-11.49,9.07-18.74,7.86c-20.55-3.02-38.08,1.21-56.21,11.48c-6.65,3.63-47.75,34.45-52.59,16.93
			c-3.63-14.51,41.1-29.01,48.96-36.87c5.44-6.04,12.09-15.11,4.84-18.13c-6.04-2.42-17.53,6.04-22.37,0
			c-10.28-10.88,21.46-33.09,3.93-43.97c-4.23-2.42-12.01-6.57-21.08-1.13"/>
	</g>
	<g>
		<linearGradient id="SVGID_19_" gradientUnits="userSpaceOnUse" x1="552.3525" y1="518.8389" x2="507.4375" y2="518.8389">
			<stop  offset="0" style="stop-color:#DFF7FF"/>
			<stop  offset="0.5161" style="stop-color:#00BBFF"/>
			<stop  offset="0.6937" style="stop-color:#00A7F2"/>
			<stop  offset="1" style="stop-color:#0088DF"/>
		</linearGradient>
		<path class="st27" d="M508.65,553.49c9.67-8.46,12.69-27.2,15.11-39.29c1.81-8.46,1.21-19.34,7.25-25.39
			c5.44-6.04,14.51-7.86,19.34,0c10.88,18.74-25.39,62.26-42.92,65.28"/>
	</g>
	<g>
		<linearGradient id="SVGID_20_" gradientUnits="userSpaceOnUse" x1="420.5562" y1="457.8179" x2="395.6064" y2="457.8179">
			<stop  offset="0" style="stop-color:#DFF7FF"/>
			<stop  offset="0.5161" style="stop-color:#00BBFF"/>
			<stop  offset="0.6937" style="stop-color:#00A7F2"/>
			<stop  offset="1" style="stop-color:#0088DF"/>
		</linearGradient>
		<path class="st28" d="M414.35,488.82c0-16.92-15.11-29.62-18.13-45.94c-3.63-18.74,9.67-21.76,18.74-5.44
			c7.86,15.11,7.25,38.08-0.6,50.77"/>
	</g>
	<g>
		<linearGradient id="SVGID_21_" gradientUnits="userSpaceOnUse" x1="792.1699" y1="329.3105" x2="731.6904" y2="329.3105">
			<stop  offset="0" style="stop-color:#DFF7FF"/>
			<stop  offset="0.5161" style="stop-color:#00BBFF"/>
			<stop  offset="0.6937" style="stop-color:#00A7F2"/>
			<stop  offset="1" style="stop-color:#0088DF"/>
		</linearGradient>
		<path class="st29" d="M731.69,389.35c17.24-9.28,19.9-46.42,21.22-63.67c1.33-14.59,8.61-79.47,34.99-47.82
			c18.13,21.76-25.71,96.9-53.56,110.16"/>
	</g>
	<g>
		<linearGradient id="SVGID_22_" gradientUnits="userSpaceOnUse" x1="812.2139" y1="390.5225" x2="748.9336" y2="390.5225">
			<stop  offset="0" style="stop-color:#DFF7FF"/>
			<stop  offset="0.5161" style="stop-color:#00BBFF"/>
			<stop  offset="0.6937" style="stop-color:#00A7F2"/>
			<stop  offset="1" style="stop-color:#0088DF"/>
		</linearGradient>
		<path class="st30" d="M748.95,392.04c10.61-6.63,57.02-19.93,62.33-5.34c9.28,23.88-53.06,11.94-62.34,5.31"/>
	</g>
	<g>
		<linearGradient id="SVGID_23_" gradientUnits="userSpaceOnUse" x1="854.9014" y1="321.4717" x2="819.1855" y2="321.4717">
			<stop  offset="0" style="stop-color:#DFF7FF"/>
			<stop  offset="0.5161" style="stop-color:#00BBFF"/>
			<stop  offset="0.6937" style="stop-color:#00A7F2"/>
			<stop  offset="1" style="stop-color:#0088DF"/>
		</linearGradient>
		<path class="st31" d="M819.19,333.63c1.33-9.28,27.9-34.47,34.53-19.88c7.96,14.59-26.53,19.9-34.49,19.9"/>
	</g>
	<g>
		<linearGradient id="SVGID_24_" gradientUnits="userSpaceOnUse" x1="876.2842" y1="499.9082" x2="839.5859" y2="499.9082">
			<stop  offset="0" style="stop-color:#DFF7FF"/>
			<stop  offset="0.5161" style="stop-color:#00BBFF"/>
			<stop  offset="0.6937" style="stop-color:#00A7F2"/>
			<stop  offset="1" style="stop-color:#0088DF"/>
		</linearGradient>
		<path class="st32" d="M839.59,512.69c6.35-15.41,19.04-27.2,36.27-25.39c4.53,17.23-27.96,16.92-36.12,25.08"/>
	</g>
	<g>
		<linearGradient id="SVGID_25_" gradientUnits="userSpaceOnUse" x1="720.6133" y1="780.249" x2="592.0625" y2="780.249">
			<stop  offset="0" style="stop-color:#DFF7FF"/>
			<stop  offset="0.5161" style="stop-color:#00BBFF"/>
			<stop  offset="0.6937" style="stop-color:#00A7F2"/>
			<stop  offset="1" style="stop-color:#0088DF"/>
		</linearGradient>
		<path class="st33" d="M592.06,792.86c25.39-13.6,38.08-35.36,69.81-37.17c19.04-0.91,29.92,2.72,43.52,16.32
			c7.25,7.25,23.57,24.48,9.97,31.73c-10.88,5.44-21.76-9.07-29.92-12.69c-10.88-5.44-20.85-5.44-32.64-5.44
			c-19.04,0-33.55,7.25-51.68,8.16c-3.63,0.91-6.35,0.91-9.07,0"/>
	</g>
	<g>
		<linearGradient id="SVGID_26_" gradientUnits="userSpaceOnUse" x1="647.2607" y1="828.2256" x2="577.5547" y2="828.2256">
			<stop  offset="0" style="stop-color:#DFF7FF"/>
			<stop  offset="0.5161" style="stop-color:#00BBFF"/>
			<stop  offset="0.6937" style="stop-color:#00A7F2"/>
			<stop  offset="1" style="stop-color:#0088DF"/>
		</linearGradient>
		<path class="st34" d="M577.55,804.65c15.41-0.91,93.39,24.48,62.56,45.33C621.08,861.77,589.34,813.71,577.55,804.65"/>
	</g>
	<g>
		<linearGradient id="SVGID_27_" gradientUnits="userSpaceOnUse" x1="227.8521" y1="690.4951" x2="12.5054" y2="690.4951">
			<stop  offset="0" style="stop-color:#DFF7FF"/>
			<stop  offset="0.5161" style="stop-color:#00BBFF"/>
			<stop  offset="0.6937" style="stop-color:#00A7F2"/>
			<stop  offset="1" style="stop-color:#0088DF"/>
		</linearGradient>
		<path class="st35" d="M13.6,614.24c46.24-5.44,105.17,19.04,136,52.59c24.48,27.2,21.76,52.59,34.45,85.23
			c14.51,38.99,50.77,21.76,42.61-15.41c-11.79-55.31-53.49-101.55-107.9-116.96c-18.13-5.44-38.08-11.79-58.03-12.69
			c-16.32-0.91-37.22,1.63-48.24,7.33"/>
	</g>
	<g>
		<path class="st17" d="M656.33,231.99c-6.12-6.26-18.23-11.56-21.49-20.41c-1.63-4.49,0-10.48,5.85-9.79
			c4.63,0.54,8.98,6.39,10.88,10.07c1.09,1.77,7.48,19.59,4.63,20.13"/>
	</g>
	<path class="st17" d="M778.61,310.05c1.49-7.63-1.2-15.14-1.83-22.67c-0.24-2.93-0.61-7.4,1.76-9.58c1.94-1.77,4.47-1.3,6.19,0.51
		c7.64,8.08,0.71,20.87-3.35,28.56c-0.71,1.35-1.71,2.57-2.57,3.8c0.02-0.21,0.02-0.42,0.02-0.62"/>
	<g>
		<path class="st17" d="M784.28,384.85c4.83-1.66,21.76-5.29,24.03,1.81c2.57,7.56-15.87,0.3-18.13,0c-1.96-0.3-4.23-0.45-5.74-1.51
			"/>
	</g>
	<g>
		<path class="st17" d="M820.54,417.79c0.3,3.02,0.3,6.2,0,9.22c-0.15,1.36-1.51,4.99-0.6,6.2c1.21,1.81,3.48,0.3,4.68-0.91
			c3.78-3.93,3.32-14.36-3.17-14.81"/>
	</g>
	<g>
		<path class="st17" d="M871.47,490.63c-1.06,3.17-5.29,4.99-8.01,6.35c-3.78,1.81-1.06,3.33,2.12,2.57
			c2.72-0.6,10.12-6.04,6.8-9.22"/>
	</g>
	<g>
		<path class="st17" d="M845.93,602.23c5.44,1.81,7.48,8.39,10.88,12.47s11.79,7.93,9.75-0.91c-1.36-6.12-12.47-15.64-21.08-11.79"
			/>
	</g>
	<g>
		<path class="st17" d="M322.78,467.9c-1.57,0.31-3.04,3.16-2.41,5.05c0.73,2.93,2.51,5.13,4.92,6.81c2.3,1.68,4.5,3.35,5.76,5.97
			c1.05,2.09,1.26,4.19,1.78,6.39c1.26-1.26,1.26-5.66,1.15-7.44c-0.21-2.51-0.21-5.55-1.05-7.85c-1.05-2.93-4.08-10.37-10.16-8.9"
			/>
	</g>
	<path class="st1" d="M564.77,654.2c10.2-2.08,10.01,9.31,5.51,14.66c-4.57,5.42-13.91,9.52-19.58,14.28
		c-8.24,6.92-22.04,19.97-17.2,32.03c3.09,7.68,28.27,13.6,18.17,23.63c-6.51,6.45-30.1,1.85-38.49,1.39
		c-15.43-0.84-41.33,6.71-33.8,27.55c2.5,6.92,12.83,8.56,14.08,15.61c1.51,8.46-11.73,13.38-18.5,12.96
		c6.11-5.82,2.26-11.25-1.6-16.47c-4.34-5.87-5.92-10.25-5.51-18.54c0.79-16.13,17.13-24.88,31.27-28.12
		c6.39-1.47,12.59-1.65,18.93-0.98c8.42,0.89,11.1-0.03,9.21-9.19c-2.71-13.06-9.2-21.84,2.92-33.04
		c11.44-10.57,33.06-18.74,36.17-34.98"/>
	<g class="st13">
		<path class="st17" d="M164.55,565.84c14.85-0.78,30.51,4.72,43.8,10.2c8.6,3.91,18.16,6.95,25.71,12.57
			c7.32,5.46,11.73,12.05,12.52,15.18c2.35,7.82-2.26,4.53-7.86,4.39c-6.72-0.16-9.99,0.53-5.33,7.72c2.13,3.28,8.57,6.25,6.23,12.5
			c-3.91,9.38-17.2-10.94-17.98-14.85c-3.13-10.94,0-14.07-10.16-21.89c-6.25-5.47-14.85-10.16-22.67-14.07
			c-7.03-3.91-4.55-3.24-24.23-11.72"/>
	</g>
	<g>
		<path class="st17" d="M195.18,696.95c6.25,14.07,6.92,22.9,7.7,38.53c0.78,7.03,3.91,35.95,17.2,25.01
			c14.85-13.29-17.98-55.5-25.01-64.09"/>
	</g>
	<g class="st15">
		<path class="st17" d="M669.5,770.66c8.6,0,17.2,5.47,22.67,10.16c4.69,3.91,16.41,17.98,14.07,2.35
			C704.68,765.97,680.45,769.09,669.5,770.66"/>
	</g>
	<g class="st15">
		<path class="st17" d="M616.35,827.72c5.47,2.34,21.89,22.67,25.79,15.63C647.62,833.19,622.61,823.81,616.35,827.72"/>
	</g>
	<g class="st13">
		<path class="st17" d="M819.98,769.95c9.38,14.85,17.98,16.41,17.98-2.34c0-8.6-2.34-15.63,8.6-17.2
			c7.03-0.78,20.95,7.24,17.2,11.72c-4.59,5.59-17.2-5.47-18.76,8.6c-0.78,6.25,7.82,20.32,3.13,26.58
			c-8.6,11.72-29.77-15.95-28.47-27.15"/>
	</g>
</g>
</svg>
